# xmcd CD database file
#
# Track frame offsets:
#	150
#	25776
#	64067
#	81167
#	100373
#	140615
#	166187
#	180165
#	201426
#	217473
#	246919
#	274444
#	300685
#	318602
#
# Disc length: 4578 seconds
#
# Revision: 0
# Processed by: cddbd v1.5.2PL0 Copyright (c) Steve Scherf et al.
# Submitted via: CDex 1.70beta2
#
DISCID=d411e00e
DTITLE=Ostinato - Best Of Vinyl and Live
DYEAR=2006
DGENRE=Jazz
TTITLE0=Ordinary And Blue, Too
TTITLE1=Latin Train
TTITLE2=Bahia Da Itacoatiara
TTITLE3=Sabor Del Sol
TTITLE4=Point Out
TTITLE5=On A Cold Summerday
TTITLE6=Chili Con Carne
TTITLE7=Que Vida, Me Querida
TTITLE8=Slow Walker
TTITLE9=Bouncin' On The Beat
TTITLE10=Four Pictures
TTITLE11=Dutch Drive
TTITLE12=Musical Prostitution
TTITLE13=Inspiration
EXTD=YEAR: 2006
EXTT0=
EXTT1=
EXTT2=
EXTT3=
EXTT4=
EXTT5=
EXTT6=
EXTT7=
EXTT8=
EXTT9=
EXTT10=
EXTT11=
EXTT12=
EXTT13=
PLAYORDER=
